<?xml version="1.0" encoding="UTF-8" ?>
<!DOCTYPE svg PUBLIC "-//W3C//DTD SVG 1.1//EN" "http://www.w3.org/Graphics/SVG/1.1/DTD/svg11.dtd">
<svg width="123pt" height="189pt" viewBox="0 0 123 189" version="1.1" xmlns="http://www.w3.org/2000/svg">
<path fill="#ffffff" d=" M 0.00 0.00 L 123.00 0.00 L 123.00 189.00 L 0.00 189.00 L 0.00 0.00 Z" />
<path fill="#000000" d=" M 14.01 10.00 C 22.00 9.99 30.00 10.00 38.00 10.00 C 37.97 28.00 38.03 46.00 38.00 64.00 C 54.67 64.01 71.33 64.01 88.00 63.99 C 87.97 46.00 88.03 28.00 88.00 10.00 C 96.00 9.99 104.00 10.00 112.00 10.00 C 112.01 54.34 112.01 98.67 111.99 143.00 C 104.00 143.01 96.00 143.00 88.01 143.00 C 88.01 126.33 87.99 109.67 87.99 93.00 C 82.66 93.00 77.34 93.00 72.01 93.00 C 71.97 123.34 72.02 153.67 71.99 184.00 C 65.00 183.99 58.00 183.99 51.01 184.00 C 50.97 153.67 51.02 123.33 50.99 93.00 C 46.66 93.00 42.33 93.00 38.01 93.00 C 38.01 109.67 37.99 126.33 37.99 143.00 C 30.00 143.01 22.00 143.00 14.00 143.00 C 13.99 98.66 13.99 54.33 14.01 10.00 Z" />
</svg>
